<mxfile host="app.diagrams.net" agent="Mozilla/5.0 (Windows NT 10.0; Win64; x64) AppleWebKit/537.36 (KHTML, like Gecko) Chrome/137.0.0.0 Safari/537.36" version="27.1.4">
  <diagram name="Página-1" id="odkFiBBw2N_IDISt32cO">
    <mxGraphModel grid="1" page="0" gridSize="10" guides="1" tooltips="1" connect="1" arrows="1" fold="1" pageScale="1" pageWidth="827" pageHeight="1169" math="0" shadow="0">
      <root>
        <mxCell id="0" />
        <mxCell id="1" parent="0" />
        <mxCell id="4GxCkoyrOx1n-vuWYFQ4-19" value="" style="endArrow=none;dashed=1;html=1;rounded=0;" edge="1" parent="1">
          <mxGeometry width="50" height="50" relative="1" as="geometry">
            <mxPoint x="1390" y="800" as="sourcePoint" />
            <mxPoint x="1389.5" y="180" as="targetPoint" />
          </mxGeometry>
        </mxCell>
        <mxCell id="4GxCkoyrOx1n-vuWYFQ4-16" value="" style="endArrow=none;dashed=1;html=1;rounded=0;" edge="1" parent="1">
          <mxGeometry width="50" height="50" relative="1" as="geometry">
            <mxPoint x="1190" y="800" as="sourcePoint" />
            <mxPoint x="1190.5" y="180" as="targetPoint" />
          </mxGeometry>
        </mxCell>
        <mxCell id="3cwDM2f5la_rhrrv-FA--1" value="" style="endArrow=none;dashed=1;html=1;rounded=0;" edge="1" parent="1" target="3cwDM2f5la_rhrrv-FA--4">
          <mxGeometry width="50" height="50" relative="1" as="geometry">
            <mxPoint x="560" y="800" as="sourcePoint" />
            <mxPoint x="559.5" y="180" as="targetPoint" />
          </mxGeometry>
        </mxCell>
        <mxCell id="4GxCkoyrOx1n-vuWYFQ4-12" value="" style="endArrow=none;dashed=1;html=1;rounded=0;" edge="1" parent="1">
          <mxGeometry width="50" height="50" relative="1" as="geometry">
            <mxPoint x="991" y="800" as="sourcePoint" />
            <mxPoint x="990.5" y="180" as="targetPoint" />
          </mxGeometry>
        </mxCell>
        <mxCell id="WssrRDGDtjN74brYx7gQ-2" value="C_WebView2" style="rounded=0;whiteSpace=wrap;html=1;fillColor=#e1d5e7;strokeColor=#9673a6;" vertex="1" parent="1">
          <mxGeometry x="350" y="140" width="100" height="40" as="geometry" />
        </mxCell>
        <mxCell id="WssrRDGDtjN74brYx7gQ-6" value="C_sqlx" style="rounded=0;whiteSpace=wrap;html=1;fillColor=#e1d5e7;strokeColor=#9673a6;" vertex="1" parent="1">
          <mxGeometry x="940" y="140" width="100" height="40" as="geometry" />
        </mxCell>
        <mxCell id="WssrRDGDtjN74brYx7gQ-7" value="C_MySQL" style="rounded=0;whiteSpace=wrap;html=1;fillColor=#dae8fc;strokeColor=#6c8ebf;" vertex="1" parent="1">
          <mxGeometry x="1150" y="140" width="100" height="40" as="geometry" />
        </mxCell>
        <mxCell id="WssrRDGDtjN74brYx7gQ-8" value="Orden_Trabajo" style="rounded=0;whiteSpace=wrap;html=1;fillColor=#ffe6cc;strokeColor=#d79b00;" vertex="1" parent="1">
          <mxGeometry x="1340" y="140" width="100" height="40" as="geometry" />
        </mxCell>
        <mxCell id="WssrRDGDtjN74brYx7gQ-9" value="&lt;div&gt;V_Gestión_&lt;/div&gt;&lt;div&gt;Ordenes&lt;/div&gt;" style="rounded=0;whiteSpace=wrap;html=1;fillColor=#d5e8d4;strokeColor=#82b366;" vertex="1" parent="1">
          <mxGeometry x="70" y="140" width="100" height="40" as="geometry" />
        </mxCell>
        <mxCell id="WssrRDGDtjN74brYx7gQ-11" value="&lt;div&gt;V_Consulta_&lt;/div&gt;&lt;div&gt;Cotización_Orden&lt;/div&gt;" style="rounded=0;whiteSpace=wrap;html=1;fillColor=#d5e8d4;strokeColor=#82b366;" vertex="1" parent="1">
          <mxGeometry x="210" y="140" width="100" height="40" as="geometry" />
        </mxCell>
        <mxCell id="WssrRDGDtjN74brYx7gQ-12" value="" style="shape=umlLifeline;perimeter=lifelinePerimeter;whiteSpace=wrap;html=1;container=1;dropTarget=0;collapsible=0;recursiveResize=0;outlineConnect=0;portConstraint=eastwest;newEdgeStyle={&quot;curved&quot;:0,&quot;rounded&quot;:0};participant=umlActor;" vertex="1" parent="1">
          <mxGeometry x="-40" y="130" width="20" height="90" as="geometry" />
        </mxCell>
        <mxCell id="WssrRDGDtjN74brYx7gQ-15" value="" style="html=1;points=[[0,0,0,0,5],[0,1,0,0,-5],[1,0,0,0,5],[1,1,0,0,-5]];perimeter=orthogonalPerimeter;outlineConnect=0;targetShapes=umlLifeline;portConstraint=eastwest;newEdgeStyle={&quot;curved&quot;:0,&quot;rounded&quot;:0};" vertex="1" parent="1">
          <mxGeometry x="-35" y="220" width="10" height="580" as="geometry" />
        </mxCell>
        <mxCell id="WssrRDGDtjN74brYx7gQ-40" value="C_Admin_Cotizaciones" style="rounded=0;whiteSpace=wrap;html=1;fillColor=#dae8fc;strokeColor=#6c8ebf;" vertex="1" parent="1">
          <mxGeometry x="680" y="140" width="140" height="40" as="geometry" />
        </mxCell>
        <mxCell id="WssrRDGDtjN74brYx7gQ-42" value="" style="endArrow=none;dashed=1;html=1;rounded=0;entryX=0.5;entryY=1;entryDx=0;entryDy=0;" edge="1" parent="1" target="WssrRDGDtjN74brYx7gQ-9">
          <mxGeometry width="50" height="50" relative="1" as="geometry">
            <mxPoint x="120" y="230" as="sourcePoint" />
            <mxPoint x="119.5" y="210" as="targetPoint" />
          </mxGeometry>
        </mxCell>
        <mxCell id="WssrRDGDtjN74brYx7gQ-49" value="Tecnico" style="text;html=1;align=center;verticalAlign=middle;resizable=0;points=[];autosize=1;strokeColor=none;fillColor=none;" vertex="1" parent="1">
          <mxGeometry x="-60" y="100" width="60" height="30" as="geometry" />
        </mxCell>
        <mxCell id="4GxCkoyrOx1n-vuWYFQ4-1" value="1. A&lt;span style=&quot;background-color: light-dark(#ffffff, var(--ge-dark-color, #121212)); color: light-dark(rgb(0, 0, 0), rgb(255, 255, 255));&quot;&gt;ccede a la vista&lt;/span&gt;" style="html=1;verticalAlign=bottom;endArrow=block;curved=0;rounded=0;" edge="1" parent="1" source="WssrRDGDtjN74brYx7gQ-15" target="4GxCkoyrOx1n-vuWYFQ4-2">
          <mxGeometry width="80" relative="1" as="geometry">
            <mxPoint y="269.5" as="sourcePoint" />
            <mxPoint x="110" y="270" as="targetPoint" />
            <Array as="points">
              <mxPoint x="90" y="270" />
            </Array>
            <mxPoint as="offset" />
          </mxGeometry>
        </mxCell>
        <mxCell id="4GxCkoyrOx1n-vuWYFQ4-2" value="" style="html=1;points=[[0,0,0,0,5],[0,1,0,0,-5],[1,0,0,0,5],[1,1,0,0,-5]];perimeter=orthogonalPerimeter;outlineConnect=0;targetShapes=umlLifeline;portConstraint=eastwest;newEdgeStyle={&quot;curved&quot;:0,&quot;rounded&quot;:0};" vertex="1" parent="1">
          <mxGeometry x="115" y="220" width="10" height="410" as="geometry" />
        </mxCell>
        <mxCell id="4GxCkoyrOx1n-vuWYFQ4-8" value="" style="endArrow=none;dashed=1;html=1;rounded=0;" edge="1" parent="1">
          <mxGeometry width="50" height="50" relative="1" as="geometry">
            <mxPoint x="750" y="800" as="sourcePoint" />
            <mxPoint x="749.5" y="180" as="targetPoint" />
          </mxGeometry>
        </mxCell>
        <mxCell id="4GxCkoyrOx1n-vuWYFQ4-4" value="2. Solicitar el listado de equipos" style="html=1;verticalAlign=bottom;endArrow=block;curved=0;rounded=0;" edge="1" parent="1">
          <mxGeometry width="80" relative="1" as="geometry">
            <mxPoint x="125" y="280" as="sourcePoint" />
            <mxPoint x="395" y="280" as="targetPoint" />
          </mxGeometry>
        </mxCell>
        <mxCell id="4GxCkoyrOx1n-vuWYFQ4-6" value="" style="endArrow=none;dashed=1;html=1;rounded=0;" edge="1" parent="1">
          <mxGeometry width="50" height="50" relative="1" as="geometry">
            <mxPoint x="399" y="800" as="sourcePoint" />
            <mxPoint x="399" y="180" as="targetPoint" />
          </mxGeometry>
        </mxCell>
        <mxCell id="4GxCkoyrOx1n-vuWYFQ4-5" value="" style="html=1;points=[[0,0,0,0,5],[0,1,0,0,-5],[1,0,0,0,5],[1,1,0,0,-5]];perimeter=orthogonalPerimeter;outlineConnect=0;targetShapes=umlLifeline;portConstraint=eastwest;newEdgeStyle={&quot;curved&quot;:0,&quot;rounded&quot;:0};" vertex="1" parent="1">
          <mxGeometry x="395" y="220" width="10" height="110" as="geometry" />
        </mxCell>
        <mxCell id="4GxCkoyrOx1n-vuWYFQ4-7" value="" style="html=1;points=[[0,0,0,0,5],[0,1,0,0,-5],[1,0,0,0,5],[1,1,0,0,-5]];perimeter=orthogonalPerimeter;outlineConnect=0;targetShapes=umlLifeline;portConstraint=eastwest;newEdgeStyle={&quot;curved&quot;:0,&quot;rounded&quot;:0};" vertex="1" parent="1">
          <mxGeometry x="745" y="590" width="10" height="190" as="geometry" />
        </mxCell>
        <mxCell id="4GxCkoyrOx1n-vuWYFQ4-9" value="3. Percibe un cambio en&lt;div&gt;la pestaña&amp;nbsp;&amp;nbsp;&lt;span style=&quot;background-color: light-dark(#ffffff, var(--ge-dark-color, #121212)); color: light-dark(rgb(0, 0, 0), rgb(255, 255, 255));&quot;&gt;y notifica&amp;nbsp;&lt;/span&gt;&lt;/div&gt;&lt;div&gt;&lt;span style=&quot;background-color: light-dark(#ffffff, var(--ge-dark-color, #121212)); color: light-dark(rgb(0, 0, 0), rgb(255, 255, 255));&quot;&gt;el evento&lt;/span&gt;&lt;/div&gt;" style="html=1;verticalAlign=bottom;endArrow=block;curved=0;rounded=0;" edge="1" parent="1">
          <mxGeometry width="80" relative="1" as="geometry">
            <mxPoint x="405" y="300" as="sourcePoint" />
            <mxPoint x="555" y="300" as="targetPoint" />
            <Array as="points">
              <mxPoint x="490" y="300" />
            </Array>
            <mxPoint as="offset" />
          </mxGeometry>
        </mxCell>
        <mxCell id="4GxCkoyrOx1n-vuWYFQ4-10" value="4. Prepara la solicitud y&amp;nbsp;&lt;div&gt;entrega la información a sqlx&lt;/div&gt;" style="html=1;verticalAlign=bottom;endArrow=block;curved=0;rounded=0;" edge="1" parent="1" source="3cwDM2f5la_rhrrv-FA--4">
          <mxGeometry width="80" relative="1" as="geometry">
            <mxPoint x="755" y="320" as="sourcePoint" />
            <mxPoint x="986" y="320" as="targetPoint" />
          </mxGeometry>
        </mxCell>
        <mxCell id="4GxCkoyrOx1n-vuWYFQ4-11" value="" style="html=1;points=[[0,0,0,0,5],[0,1,0,0,-5],[1,0,0,0,5],[1,1,0,0,-5]];perimeter=orthogonalPerimeter;outlineConnect=0;targetShapes=umlLifeline;portConstraint=eastwest;newEdgeStyle={&quot;curved&quot;:0,&quot;rounded&quot;:0};" vertex="1" parent="1">
          <mxGeometry x="986" y="290" width="10" height="190" as="geometry" />
        </mxCell>
        <mxCell id="4GxCkoyrOx1n-vuWYFQ4-13" value="5. Solicitud de los datos en la base" style="html=1;verticalAlign=bottom;endArrow=block;curved=0;rounded=0;" edge="1" parent="1">
          <mxGeometry width="80" relative="1" as="geometry">
            <mxPoint x="996" y="340" as="sourcePoint" />
            <mxPoint x="1186" y="340" as="targetPoint" />
            <mxPoint as="offset" />
          </mxGeometry>
        </mxCell>
        <mxCell id="4GxCkoyrOx1n-vuWYFQ4-15" value="" style="html=1;points=[[0,0,0,0,5],[0,1,0,0,-5],[1,0,0,0,5],[1,1,0,0,-5]];perimeter=orthogonalPerimeter;outlineConnect=0;targetShapes=umlLifeline;portConstraint=eastwest;newEdgeStyle={&quot;curved&quot;:0,&quot;rounded&quot;:0};" vertex="1" parent="1">
          <mxGeometry x="1186" y="290" width="10" height="160" as="geometry" />
        </mxCell>
        <mxCell id="4GxCkoyrOx1n-vuWYFQ4-17" value="6. Realiza la consulta&lt;div&gt;en la base de datos&lt;/div&gt;" style="html=1;verticalAlign=bottom;endArrow=block;curved=0;rounded=0;" edge="1" parent="1">
          <mxGeometry width="80" relative="1" as="geometry">
            <mxPoint x="1196" y="359.5" as="sourcePoint" />
            <mxPoint x="1385" y="359.5" as="targetPoint" />
            <mxPoint as="offset" />
          </mxGeometry>
        </mxCell>
        <mxCell id="4GxCkoyrOx1n-vuWYFQ4-18" value="" style="html=1;points=[[0,0,0,0,5],[0,1,0,0,-5],[1,0,0,0,5],[1,1,0,0,-5]];perimeter=orthogonalPerimeter;outlineConnect=0;targetShapes=umlLifeline;portConstraint=eastwest;newEdgeStyle={&quot;curved&quot;:0,&quot;rounded&quot;:0};" vertex="1" parent="1">
          <mxGeometry x="1385" y="280" width="10" height="190" as="geometry" />
        </mxCell>
        <mxCell id="4GxCkoyrOx1n-vuWYFQ4-22" value="1 0. Envía los datos&lt;div&gt;a sqlx&lt;/div&gt;" style="html=1;verticalAlign=bottom;endArrow=open;dashed=1;endSize=8;curved=0;rounded=0;" edge="1" parent="1">
          <mxGeometry relative="1" as="geometry">
            <mxPoint x="1186" y="440" as="sourcePoint" />
            <mxPoint x="996" y="440" as="targetPoint" />
          </mxGeometry>
        </mxCell>
        <mxCell id="4GxCkoyrOx1n-vuWYFQ4-23" value="11. Transferir los datos al controlador" style="html=1;verticalAlign=bottom;endArrow=open;dashed=1;endSize=8;curved=0;rounded=0;" edge="1" parent="1">
          <mxGeometry x="0.0043" relative="1" as="geometry">
            <mxPoint x="986" y="460" as="sourcePoint" />
            <mxPoint x="565" y="460" as="targetPoint" />
            <mxPoint as="offset" />
          </mxGeometry>
        </mxCell>
        <mxCell id="4GxCkoyrOx1n-vuWYFQ4-24" value="9. La tabla devuelve los datos&lt;div&gt;de la consulta&lt;/div&gt;" style="html=1;verticalAlign=bottom;endArrow=open;dashed=1;endSize=8;curved=0;rounded=0;" edge="1" parent="1">
          <mxGeometry relative="1" as="geometry">
            <mxPoint x="1385" y="420" as="sourcePoint" />
            <mxPoint x="1196" y="420" as="targetPoint" />
          </mxGeometry>
        </mxCell>
        <mxCell id="4GxCkoyrOx1n-vuWYFQ4-25" value="12. Procesar los datos&lt;div&gt;y se envían a webview&lt;/div&gt;" style="html=1;verticalAlign=bottom;endArrow=open;dashed=1;endSize=8;curved=0;rounded=0;" edge="1" parent="1" source="PtdL467sRBINPTrVlLWx-1">
          <mxGeometry y="75" relative="1" as="geometry">
            <mxPoint x="555" y="480" as="sourcePoint" />
            <mxPoint x="405" y="480" as="targetPoint" />
            <mxPoint x="75" as="offset" />
          </mxGeometry>
        </mxCell>
        <mxCell id="4GxCkoyrOx1n-vuWYFQ4-26" value="13. Crear los componentes para&amp;nbsp;&lt;div&gt;que sean visualizados&lt;/div&gt;" style="html=1;verticalAlign=bottom;endArrow=open;dashed=1;endSize=8;curved=0;rounded=0;" edge="1" parent="1">
          <mxGeometry relative="1" as="geometry">
            <mxPoint x="395" y="500" as="sourcePoint" />
            <mxPoint x="125" y="500" as="targetPoint" />
          </mxGeometry>
        </mxCell>
        <mxCell id="4GxCkoyrOx1n-vuWYFQ4-27" value="14. Mostrar el listado de&lt;div&gt;equipos en la vista&lt;/div&gt;" style="html=1;verticalAlign=bottom;endArrow=open;dashed=1;endSize=8;curved=0;rounded=0;" edge="1" parent="1">
          <mxGeometry relative="1" as="geometry">
            <mxPoint x="115" y="520" as="sourcePoint" />
            <mxPoint x="-25" y="520" as="targetPoint" />
          </mxGeometry>
        </mxCell>
        <mxCell id="4GxCkoyrOx1n-vuWYFQ4-29" value="15. Selecciona un equipo&amp;nbsp;&lt;span style=&quot;background-color: light-dark(#ffffff, var(--ge-dark-color, #121212)); color: light-dark(rgb(0, 0, 0), rgb(255, 255, 255));&quot;&gt;y&amp;nbsp;&lt;/span&gt;&lt;div&gt;&lt;span style=&quot;background-color: light-dark(#ffffff, var(--ge-dark-color, #121212)); color: light-dark(rgb(0, 0, 0), rgb(255, 255, 255));&quot;&gt;visualiza la cotización&lt;/span&gt;&lt;/div&gt;" style="html=1;verticalAlign=bottom;endArrow=block;curved=0;rounded=0;" edge="1" parent="1">
          <mxGeometry width="80" relative="1" as="geometry">
            <mxPoint x="-25" y="600" as="sourcePoint" />
            <mxPoint x="115" y="600" as="targetPoint" />
            <mxPoint as="offset" />
          </mxGeometry>
        </mxCell>
        <mxCell id="4GxCkoyrOx1n-vuWYFQ4-30" value="16. Solicitar la cotización del equipo seleccionado" style="html=1;verticalAlign=bottom;endArrow=block;curved=0;rounded=0;" edge="1" parent="1">
          <mxGeometry width="80" relative="1" as="geometry">
            <mxPoint x="125" y="610" as="sourcePoint" />
            <mxPoint x="395" y="610" as="targetPoint" />
          </mxGeometry>
        </mxCell>
        <mxCell id="4GxCkoyrOx1n-vuWYFQ4-31" value="17. Percibe un cambio en&lt;div&gt;la pestaña&amp;nbsp;&amp;nbsp;&lt;span style=&quot;background-color: light-dark(#ffffff, var(--ge-dark-color, #121212)); color: light-dark(rgb(0, 0, 0), rgb(255, 255, 255));&quot;&gt;y notifica &lt;/span&gt;&lt;span style=&quot;background-color: light-dark(#ffffff, var(--ge-dark-color, #121212)); color: light-dark(rgb(0, 0, 0), rgb(255, 255, 255));&quot;&gt;el evento&lt;/span&gt;&lt;/div&gt;" style="html=1;verticalAlign=bottom;endArrow=block;curved=0;rounded=0;" edge="1" parent="1" source="PtdL467sRBINPTrVlLWx-3" target="4GxCkoyrOx1n-vuWYFQ4-7">
          <mxGeometry width="80" relative="1" as="geometry">
            <mxPoint x="405" y="620" as="sourcePoint" />
            <mxPoint x="555" y="620" as="targetPoint" />
          </mxGeometry>
        </mxCell>
        <mxCell id="4GxCkoyrOx1n-vuWYFQ4-32" value="18. Prepara la solicitud y entrega&lt;div&gt;la información a sqlx&lt;/div&gt;" style="html=1;verticalAlign=bottom;endArrow=block;curved=0;rounded=0;" edge="1" parent="1">
          <mxGeometry x="0.0043" width="80" relative="1" as="geometry">
            <mxPoint x="755" y="630" as="sourcePoint" />
            <mxPoint x="986" y="630" as="targetPoint" />
            <mxPoint as="offset" />
          </mxGeometry>
        </mxCell>
        <mxCell id="4GxCkoyrOx1n-vuWYFQ4-34" value="19. Solicitud de los datos en la base" style="html=1;verticalAlign=bottom;endArrow=block;curved=0;rounded=0;" edge="1" parent="1">
          <mxGeometry width="80" relative="1" as="geometry">
            <mxPoint x="996" y="640" as="sourcePoint" />
            <mxPoint x="1186" y="640" as="targetPoint" />
            <mxPoint as="offset" />
          </mxGeometry>
        </mxCell>
        <mxCell id="4GxCkoyrOx1n-vuWYFQ4-35" value="20. Realiza la consulta en la&lt;div&gt;base de datos&lt;/div&gt;" style="html=1;verticalAlign=bottom;endArrow=block;curved=0;rounded=0;" edge="1" parent="1" target="ZCyUCG5Fg6QpvfMpfb6o-9">
          <mxGeometry x="0.0053" width="80" relative="1" as="geometry">
            <mxPoint x="1196" y="650" as="sourcePoint" />
            <mxPoint x="1385" y="650" as="targetPoint" />
            <mxPoint as="offset" />
          </mxGeometry>
        </mxCell>
        <mxCell id="4GxCkoyrOx1n-vuWYFQ4-36" value="21. La tabla devuelve los datos&lt;div&gt;de la consulta&lt;/div&gt;" style="html=1;verticalAlign=bottom;endArrow=open;dashed=1;endSize=8;curved=0;rounded=0;" edge="1" parent="1" source="ZCyUCG5Fg6QpvfMpfb6o-9">
          <mxGeometry relative="1" as="geometry">
            <mxPoint x="1385" y="710" as="sourcePoint" />
            <mxPoint x="1196" y="710" as="targetPoint" />
          </mxGeometry>
        </mxCell>
        <mxCell id="4GxCkoyrOx1n-vuWYFQ4-37" value="22. Envía los datos&lt;div&gt;a sqlx&lt;/div&gt;" style="html=1;verticalAlign=bottom;endArrow=open;dashed=1;endSize=8;curved=0;rounded=0;" edge="1" parent="1">
          <mxGeometry relative="1" as="geometry">
            <mxPoint x="1186" y="720" as="sourcePoint" />
            <mxPoint x="996" y="720" as="targetPoint" />
          </mxGeometry>
        </mxCell>
        <mxCell id="4GxCkoyrOx1n-vuWYFQ4-38" value="23. Transferir los datos al controlador" style="html=1;verticalAlign=bottom;endArrow=open;dashed=1;endSize=8;curved=0;rounded=0;" edge="1" parent="1">
          <mxGeometry x="0.0043" relative="1" as="geometry">
            <mxPoint x="986" y="729" as="sourcePoint" />
            <mxPoint x="755" y="729" as="targetPoint" />
            <mxPoint as="offset" />
          </mxGeometry>
        </mxCell>
        <mxCell id="4GxCkoyrOx1n-vuWYFQ4-39" value="24. Procesar los datos&lt;div&gt;y se envían a webview&lt;/div&gt;" style="html=1;verticalAlign=bottom;endArrow=open;dashed=1;endSize=8;curved=0;rounded=0;" edge="1" parent="1" source="4GxCkoyrOx1n-vuWYFQ4-7">
          <mxGeometry relative="1" as="geometry">
            <mxPoint x="555" y="740" as="sourcePoint" />
            <mxPoint x="405" y="740" as="targetPoint" />
          </mxGeometry>
        </mxCell>
        <mxCell id="4GxCkoyrOx1n-vuWYFQ4-41" value="25. Crear los&amp;nbsp;&lt;div&gt;componentes&lt;div&gt;&amp;nbsp;para&amp;nbsp;&amp;nbsp;&lt;span style=&quot;background-color: light-dark(#ffffff, var(--ge-dark-color, #121212)); color: light-dark(rgb(0, 0, 0), rgb(255, 255, 255));&quot;&gt;que sean&amp;nbsp;&lt;/span&gt;&lt;/div&gt;&lt;div&gt;&lt;span style=&quot;background-color: light-dark(#ffffff, var(--ge-dark-color, #121212)); color: light-dark(rgb(0, 0, 0), rgb(255, 255, 255));&quot;&gt;visualizados&lt;/span&gt;&lt;/div&gt;&lt;/div&gt;" style="html=1;verticalAlign=bottom;endArrow=open;dashed=1;endSize=8;curved=0;rounded=0;entryX=0.5;entryY=0.615;entryDx=0;entryDy=0;entryPerimeter=0;" edge="1" parent="1">
          <mxGeometry relative="1" as="geometry">
            <mxPoint x="395" y="740.05" as="sourcePoint" />
            <mxPoint x="260" y="740" as="targetPoint" />
          </mxGeometry>
        </mxCell>
        <mxCell id="93gvHckyBneW-JXlyrs4-2" value="" style="endArrow=none;dashed=1;html=1;rounded=0;entryX=0.5;entryY=1;entryDx=0;entryDy=0;" edge="1" parent="1">
          <mxGeometry width="50" height="50" relative="1" as="geometry">
            <mxPoint x="260" y="670" as="sourcePoint" />
            <mxPoint x="259.5" y="180" as="targetPoint" />
          </mxGeometry>
        </mxCell>
        <mxCell id="93gvHckyBneW-JXlyrs4-3" value="" style="html=1;points=[[0,0,0,0,5],[0,1,0,0,-5],[1,0,0,0,5],[1,1,0,0,-5]];perimeter=orthogonalPerimeter;outlineConnect=0;targetShapes=umlLifeline;portConstraint=eastwest;newEdgeStyle={&quot;curved&quot;:0,&quot;rounded&quot;:0};" vertex="1" parent="1">
          <mxGeometry x="255" y="670" width="10" height="130" as="geometry" />
        </mxCell>
        <mxCell id="93gvHckyBneW-JXlyrs4-6" value="26. Mostrar la cotizacion a traves del modal" style="html=1;verticalAlign=bottom;endArrow=open;dashed=1;endSize=8;curved=0;rounded=0;" edge="1" parent="1" source="93gvHckyBneW-JXlyrs4-3" target="WssrRDGDtjN74brYx7gQ-15">
          <mxGeometry relative="1" as="geometry">
            <mxPoint x="190" y="740" as="sourcePoint" />
            <mxPoint x="50" y="740" as="targetPoint" />
            <Array as="points">
              <mxPoint x="220" y="750" />
            </Array>
          </mxGeometry>
        </mxCell>
        <mxCell id="PtdL467sRBINPTrVlLWx-2" value="" style="html=1;verticalAlign=bottom;endArrow=open;dashed=1;endSize=8;curved=0;rounded=0;" edge="1" parent="1" target="PtdL467sRBINPTrVlLWx-1">
          <mxGeometry relative="1" as="geometry">
            <mxPoint x="555" y="480" as="sourcePoint" />
            <mxPoint x="405" y="480" as="targetPoint" />
          </mxGeometry>
        </mxCell>
        <mxCell id="PtdL467sRBINPTrVlLWx-1" value="" style="html=1;points=[[0,0,0,0,5],[0,1,0,0,-5],[1,0,0,0,5],[1,1,0,0,-5]];perimeter=orthogonalPerimeter;outlineConnect=0;targetShapes=umlLifeline;portConstraint=eastwest;newEdgeStyle={&quot;curved&quot;:0,&quot;rounded&quot;:0};" vertex="1" parent="1">
          <mxGeometry x="395" y="430" width="10" height="110" as="geometry" />
        </mxCell>
        <mxCell id="PtdL467sRBINPTrVlLWx-4" value="" style="html=1;verticalAlign=bottom;endArrow=block;curved=0;rounded=0;" edge="1" parent="1" target="PtdL467sRBINPTrVlLWx-3">
          <mxGeometry width="80" relative="1" as="geometry">
            <mxPoint x="405" y="620" as="sourcePoint" />
            <mxPoint x="555" y="620" as="targetPoint" />
          </mxGeometry>
        </mxCell>
        <mxCell id="PtdL467sRBINPTrVlLWx-3" value="" style="html=1;points=[[0,0,0,0,5],[0,1,0,0,-5],[1,0,0,0,5],[1,1,0,0,-5]];perimeter=orthogonalPerimeter;outlineConnect=0;targetShapes=umlLifeline;portConstraint=eastwest;newEdgeStyle={&quot;curved&quot;:0,&quot;rounded&quot;:0};" vertex="1" parent="1">
          <mxGeometry x="395" y="570" width="10" height="90" as="geometry" />
        </mxCell>
        <mxCell id="PtdL467sRBINPTrVlLWx-5" value="" style="html=1;points=[[0,0,0,0,5],[0,1,0,0,-5],[1,0,0,0,5],[1,1,0,0,-5]];perimeter=orthogonalPerimeter;outlineConnect=0;targetShapes=umlLifeline;portConstraint=eastwest;newEdgeStyle={&quot;curved&quot;:0,&quot;rounded&quot;:0};" vertex="1" parent="1">
          <mxGeometry x="395" y="690" width="10" height="90" as="geometry" />
        </mxCell>
        <mxCell id="3cwDM2f5la_rhrrv-FA--2" value="" style="endArrow=none;dashed=1;html=1;rounded=0;" edge="1" parent="1" source="3cwDM2f5la_rhrrv-FA--4">
          <mxGeometry width="50" height="50" relative="1" as="geometry">
            <mxPoint x="560" y="810" as="sourcePoint" />
            <mxPoint x="559.5" y="180" as="targetPoint" />
          </mxGeometry>
        </mxCell>
        <mxCell id="3cwDM2f5la_rhrrv-FA--3" value="&lt;div&gt;C_Equipo_&lt;/div&gt;&lt;div&gt;Ordenes&lt;/div&gt;" style="rounded=0;whiteSpace=wrap;html=1;fillColor=#dae8fc;strokeColor=#6c8ebf;" vertex="1" parent="1">
          <mxGeometry x="500" y="140" width="120" height="40" as="geometry" />
        </mxCell>
        <mxCell id="3cwDM2f5la_rhrrv-FA--4" value="" style="html=1;points=[[0,0,0,0,5],[0,1,0,0,-5],[1,0,0,0,5],[1,1,0,0,-5]];perimeter=orthogonalPerimeter;outlineConnect=0;targetShapes=umlLifeline;portConstraint=eastwest;newEdgeStyle={&quot;curved&quot;:0,&quot;rounded&quot;:0};" vertex="1" parent="1">
          <mxGeometry x="555" y="270" width="10" height="230" as="geometry" />
        </mxCell>
        <mxCell id="3cwDM2f5la_rhrrv-FA--5" value="" style="html=1;points=[[0,0,0,0,5],[0,1,0,0,-5],[1,0,0,0,5],[1,1,0,0,-5]];perimeter=orthogonalPerimeter;outlineConnect=0;targetShapes=umlLifeline;portConstraint=eastwest;newEdgeStyle={&quot;curved&quot;:0,&quot;rounded&quot;:0};" vertex="1" parent="1">
          <mxGeometry x="985" y="590" width="10" height="190" as="geometry" />
        </mxCell>
        <mxCell id="3cwDM2f5la_rhrrv-FA--7" value="" style="html=1;points=[[0,0,0,0,5],[0,1,0,0,-5],[1,0,0,0,5],[1,1,0,0,-5]];perimeter=orthogonalPerimeter;outlineConnect=0;targetShapes=umlLifeline;portConstraint=eastwest;newEdgeStyle={&quot;curved&quot;:0,&quot;rounded&quot;:0};" vertex="1" parent="1">
          <mxGeometry x="1186" y="605" width="10" height="160" as="geometry" />
        </mxCell>
        <mxCell id="ZCyUCG5Fg6QpvfMpfb6o-1" value="Equipo" style="rounded=0;whiteSpace=wrap;html=1;fillColor=#ffe6cc;strokeColor=#d79b00;" vertex="1" parent="1">
          <mxGeometry x="1520" y="140" width="100" height="40" as="geometry" />
        </mxCell>
        <mxCell id="ZCyUCG5Fg6QpvfMpfb6o-2" value="" style="endArrow=none;dashed=1;html=1;rounded=0;" edge="1" parent="1">
          <mxGeometry width="50" height="50" relative="1" as="geometry">
            <mxPoint x="1570" y="800" as="sourcePoint" />
            <mxPoint x="1569.5" y="180" as="targetPoint" />
          </mxGeometry>
        </mxCell>
        <mxCell id="ZCyUCG5Fg6QpvfMpfb6o-3" value="&lt;div&gt;7. Realiza un join en base a &lt;br&gt;&lt;/div&gt;&lt;div&gt;la id&lt;/div&gt;" style="html=1;verticalAlign=bottom;endArrow=block;curved=0;rounded=0;" edge="1" parent="1" target="ZCyUCG5Fg6QpvfMpfb6o-4">
          <mxGeometry width="80" relative="1" as="geometry">
            <mxPoint x="1395" y="380" as="sourcePoint" />
            <mxPoint x="1540" y="380" as="targetPoint" />
          </mxGeometry>
        </mxCell>
        <mxCell id="ZCyUCG5Fg6QpvfMpfb6o-4" value="" style="html=1;points=[[0,0,0,0,5],[0,1,0,0,-5],[1,0,0,0,5],[1,1,0,0,-5]];perimeter=orthogonalPerimeter;outlineConnect=0;targetShapes=umlLifeline;portConstraint=eastwest;newEdgeStyle={&quot;curved&quot;:0,&quot;rounded&quot;:0};" vertex="1" parent="1">
          <mxGeometry x="1565" y="340" width="10" height="110" as="geometry" />
        </mxCell>
        <mxCell id="ZCyUCG5Fg6QpvfMpfb6o-5" value="8. Retorna la información" style="html=1;verticalAlign=bottom;endArrow=open;dashed=1;endSize=8;curved=0;rounded=0;" edge="1" parent="1">
          <mxGeometry relative="1" as="geometry">
            <mxPoint x="1560" y="410" as="sourcePoint" />
            <mxPoint x="1395" y="410" as="targetPoint" />
          </mxGeometry>
        </mxCell>
        <mxCell id="ZCyUCG5Fg6QpvfMpfb6o-6" value="Cotizacion" style="rounded=0;whiteSpace=wrap;html=1;fillColor=#ffe6cc;strokeColor=#d79b00;" vertex="1" parent="1">
          <mxGeometry x="1720" y="140" width="100" height="40" as="geometry" />
        </mxCell>
        <mxCell id="ZCyUCG5Fg6QpvfMpfb6o-7" value="" style="endArrow=none;dashed=1;html=1;rounded=0;" edge="1" parent="1" source="ZCyUCG5Fg6QpvfMpfb6o-9">
          <mxGeometry width="50" height="50" relative="1" as="geometry">
            <mxPoint x="1770" y="760" as="sourcePoint" />
            <mxPoint x="1769.5" y="180" as="targetPoint" />
          </mxGeometry>
        </mxCell>
        <mxCell id="ZCyUCG5Fg6QpvfMpfb6o-8" value="" style="endArrow=none;dashed=1;html=1;rounded=0;" edge="1" parent="1" target="ZCyUCG5Fg6QpvfMpfb6o-9">
          <mxGeometry width="50" height="50" relative="1" as="geometry">
            <mxPoint x="1770" y="800" as="sourcePoint" />
            <mxPoint x="1769.5" y="180" as="targetPoint" />
          </mxGeometry>
        </mxCell>
        <mxCell id="ZCyUCG5Fg6QpvfMpfb6o-9" value="" style="html=1;points=[[0,0,0,0,5],[0,1,0,0,-5],[1,0,0,0,5],[1,1,0,0,-5]];perimeter=orthogonalPerimeter;outlineConnect=0;targetShapes=umlLifeline;portConstraint=eastwest;newEdgeStyle={&quot;curved&quot;:0,&quot;rounded&quot;:0};" vertex="1" parent="1">
          <mxGeometry x="1765" y="620" width="10" height="120" as="geometry" />
        </mxCell>
      </root>
    </mxGraphModel>
  </diagram>
</mxfile>
